:SAMPLES-PER-SECOND 30
:FULLY-SPECIFIED
:DEGREES
48
root  61.922 37.8948 -8.03203 -118.691 -82.4818 121.78
RightUpLeg  -10.6641 -1.75784 -12.13
RightLeg  59.5683 -0.400339 -1.31896
RightFoot  11.2491 -1.32893 6.99116
RightToes  1.74622e-010 0 -3.6325e-017
Spine  11.8849 3.55675 2.84421
Spine1  5.04783 7.11019 -13.7608
HEad  -23.106 -1.40228 0.229127
LeftShoulder1  8.64541 -12.2524 -47.8838
LeftArm  -10.3316 40.5034 -25.6097
LeftForeArm  175.436 -65.3018 -159.249
LeftHand  -0.244104 0.0205437 5.32207
RightShoulder  6.86993 10.6684 42.1864
RightArm  15.1697 -18.1901 30.8602
RightForeArm  100.092 79.9927 95.9662
RightHand  -0.0720858 -9.62823 0.408932
LeftUpLeg  -16.4573 8.36965 -12.7431
LeftLeg  31.4816 10.186 7.00194
LeftFoot  -19.0037 0.287387 2.64009
LeftToes  -5.82109e-011 8.55049e-011 -1.09726e-011
49
root  60.7465 37.4764 -8.09687 -110.108 -81.9887 112.21
RightUpLeg  -17.1143 -1.07008 -12.8842
RightLeg  69.8281 -1.49035 -5.3559
RightFoot  11.5367 -0.571383 3.13085
RightToes  1.74622e-010 0 -3.6325e-017
Spine  13.8736 2.71422 -1.1671
Spine1  5.23237 5.11362 -10.5612
HEad  -25.3964 -0.614757 -0.238187
LeftShoulder1  9.19922 -12.5453 -50.0366
LeftArm  -7.75041 32.1422 -22.3306
LeftForeArm  173.129 -67.5329 -156.773
LeftHand  -0.244104 0.0205437 5.32207
RightShoulder  7.38659 10.8649 44.8999
RightArm  11.1566 -21.0001 29.618
RightForeArm  68.3309 79.0186 62.3078
RightHand  0.0278606 -7.56478 -3.93225
LeftUpLeg  -14.6682 9.60436 -13.2327
LeftLeg  34.3789 8.68535 6.71036
LeftFoot  -22.2343 0.338073 2.16961
LeftToes  -5.82109e-011 8.55049e-011 -1.09726e-011
50
root  59.3906 37.4214 -8.12486 -94.1904 -82.8539 96.1848
RightUpLeg  -23.0022 -2.54079 -11.9967
RightLeg  75.294 -2.07033 -10.0998
RightFoot  7.29577 -0.0150766 0.42334
RightToes  1.74622e-010 0 -3.6325e-017
Spine  14.6006 1.41812 -3.76277
Spine1  5.3953 2.48811 -6.25024
HEad  -26.7432 0.142694 -1.0969
LeftShoulder1  9.4587 -12.7597 -50.7647
LeftArm  -4.39958 23.8878 -21.1415
LeftForeArm  173.783 -69.2771 -154.851
LeftHand  -0.244104 0.0205437 5.32207
RightShoulder  7.49447 10.6896 46.1588
RightArm  7.44862 -27.5736 27.2019
RightForeArm  62.3592 78.6055 62.5898
RightHand  0.0639306 -6.31221 -10.5653
LeftUpLeg  -11.7745 9.94952 -12.1555
LeftLeg  33.7825 6.50098 5.04334
LeftFoot  -24.2699 0.298412 1.3334
LeftToes  -5.82109e-011 8.55049e-011 -1.09726e-011
51
root  57.8599 37.7155 -8.08286 -73.6604 -84.6485 76.2019
RightUpLeg  -27.9336 -4.33796 -9.19511
RightLeg  75.2873 -2.65941 -12.6922
RightFoot  2.83805 -0.0244303 0.396801
RightToes  1.74622e-010 0 -3.6325e-017
Spine  14.2631 -0.231503 -4.75111
Spine1  5.32167 -0.479661 -1.3288
HEad  -27.351 2.29753 -2.38083
LeftShoulder1  9.15932 -12.7131 -49.3036
LeftArm  -1.50028 18.9269 -23.4783
LeftForeArm  177.568 -68.5155 -156.177
LeftHand  -0.244104 0.0205437 5.32207
RightShoulder  6.82699 10.0261 44.0016
RightArm  7.88462 -36.0542 24.385
RightForeArm  85.3436 79.347 94.7816
RightHand  0.0191573 -5.62526 -14.5655
LeftUpLeg  -8.01948 9.06383 -9.63954
LeftLeg  30.3711 5.52135 3.83167
LeftFoot  -24.34 0.294428 1.31147
LeftToes  -5.82109e-011 8.55049e-011 -1.09726e-011
52
root  56.1421 38.3138 -8.0142 -38.7459 -86.9873 42.0182
RightUpLeg  -31.0995 -5.22196 -4.78671
RightLeg  70.0426 -4.14785 -13.308
RightFoot  0.239564 -0.190807 1.89083
RightToes  1.74622e-010 0 -3.6325e-017
Spine  13.432 -2.0098 -4.0913
Spine1  4.78561 -3.24386 2.93662
HEad  -26.744 6.1499 -4.31211
LeftShoulder1  8.73907 -12.6276 -47.2781
LeftArm  0.768525 17.7792 -26.7636
LeftForeArm  179.575 -65.7306 -159.297
LeftHand  -0.244104 0.0205437 5.32207
RightShoulder  5.8245 9.21549 39.6698
RightArm  12.2719 -43.2743 20.9973
RightForeArm  117.51 76.3095 129.618
RightHand  -0.014417 -5.42277 -13.9243
LeftUpLeg  -3.40804 8.5423 -5.90332
LeftLeg  24.9124 5.48501 3.1762
LeftFoot  -22.4518 0.262991 1.32789
LeftToes  -5.82109e-011 8.55049e-011 -1.09726e-011
53
root  54.2253 39.1033 -7.97373 30.3298 -88.0833 -26.1699
RightUpLeg  -32.0205 -5.43656 0.0370526
RightLeg  60.1643 -6.43827 -12.4844
RightFoot  -1.70553 -0.261959 2.95168
RightToes  1.74622e-010 0 -3.6325e-017
Spine  12.2581 -3.68944 -2.25551
Spine1  3.65658 -5.34767 5.57484
HEad  -24.0373 10.4062 -6.37117
LeftShoulder1  8.54873 -12.6502 -46.1559
LeftArm  3.19315 18.4151 -28.4545
LeftForeArm  178.33 -62.943 -161.532
LeftHand  -0.244104 0.0205437 5.32207
RightShoulder  5.11131 8.80481 35.5721
RightArm  16.7511 -48.5087 17.6677
RightForeArm  135.559 72.3216 144.559
RightHand  0.0569162 -6.25921 -10.8671
LeftUpLeg  1.74228 9.61508 -1.52289
LeftLeg  18.1248 4.89215 1.78298
LeftFoot  -18.2218 0.110268 -0.150593
LeftToes  -5.82109e-011 8.55049e-011 -1.09726e-011
